<?xml version="1.0" standalone="no"?>
<!DOCTYPE svg PUBLIC "-//W3C//DTD SVG 20010904//EN"
 "http://www.w3.org/TR/2001/REC-SVG-20010904/DTD/svg10.dtd">
<svg version="1.0" xmlns="http://www.w3.org/2000/svg"
 width="919.000000pt" height="919.000000pt" viewBox="0 0 919.000000 919.000000"
 preserveAspectRatio="xMidYMid meet">
<metadata>
Created by potrace 1.11, written by Peter Selinger 2001-2013
</metadata>
<g transform="translate(0.000000,919.000000) scale(0.100000,-0.100000)"
fill="#000000" stroke="none">
<path d="M726 8464 c-15 -14 -16 -379 -16 -3869 0 -3490 1 -3855 16 -3869 14
-15 379 -16 3869 -16 3490 0 3855 1 3869 16 15 14 16 379 16 3869 0 3490 -1
3855 -16 3869 -14 15 -379 16 -3869 16 -3490 0 -3855 -1 -3869 -16z m3434
-3719 l0 -1515 910 0 910 0 0 -270 0 -270 -1220 0 -1220 0 0 1785 0 1785 310
0 310 0 0 -1515z"/>
</g>
</svg>
